<mxfile host="app.diagrams.net" modified="2023-06-12T13:15:11.840Z" agent="Mozilla/5.0 (Windows NT 10.0; Win64; x64) AppleWebKit/537.36 (KHTML, like Gecko) Chrome/114.0.0.0 Safari/537.36" etag="pXjOl_7XjqoYaQWRWWId" version="21.3.8" type="github">
  <diagram name="第 1 页" id="sAMFM_kAIzJIXbysXmXj">
    <mxGraphModel dx="1050" dy="485" grid="1" gridSize="10" guides="1" tooltips="1" connect="1" arrows="1" fold="1" page="1" pageScale="1" pageWidth="827" pageHeight="1169" math="0" shadow="0">
      <root>
        <mxCell id="0" />
        <mxCell id="1" parent="0" />
        <mxCell id="V7zckTCGArjimNkhpKVx-3" value="&lt;b&gt;&lt;font style=&quot;font-size: 18px;&quot;&gt;券工厂功能地图&lt;/font&gt;&lt;/b&gt;" style="text;html=1;strokeColor=none;fillColor=none;align=center;verticalAlign=middle;whiteSpace=wrap;rounded=0;" vertex="1" parent="1">
          <mxGeometry x="40" y="30" width="160" height="90" as="geometry" />
        </mxCell>
        <mxCell id="V7zckTCGArjimNkhpKVx-4" value="CMS" style="rounded=1;whiteSpace=wrap;html=1;" vertex="1" parent="1">
          <mxGeometry x="110" y="180" width="120" height="60" as="geometry" />
        </mxCell>
        <mxCell id="V7zckTCGArjimNkhpKVx-5" value="造券" style="rounded=1;whiteSpace=wrap;html=1;" vertex="1" parent="1">
          <mxGeometry x="280" y="110" width="120" height="60" as="geometry" />
        </mxCell>
        <mxCell id="V7zckTCGArjimNkhpKVx-6" value="查券" style="rounded=1;whiteSpace=wrap;html=1;" vertex="1" parent="1">
          <mxGeometry x="280" y="190" width="120" height="60" as="geometry" />
        </mxCell>
        <mxCell id="V7zckTCGArjimNkhpKVx-7" value="发券" style="rounded=1;whiteSpace=wrap;html=1;" vertex="1" parent="1">
          <mxGeometry x="280" y="270" width="120" height="60" as="geometry" />
        </mxCell>
        <mxCell id="V7zckTCGArjimNkhpKVx-11" style="edgeStyle=orthogonalEdgeStyle;rounded=0;orthogonalLoop=1;jettySize=auto;html=1;" edge="1" parent="1" source="V7zckTCGArjimNkhpKVx-8" target="V7zckTCGArjimNkhpKVx-9">
          <mxGeometry relative="1" as="geometry" />
        </mxCell>
        <mxCell id="V7zckTCGArjimNkhpKVx-12" style="edgeStyle=orthogonalEdgeStyle;rounded=0;orthogonalLoop=1;jettySize=auto;html=1;" edge="1" parent="1" source="V7zckTCGArjimNkhpKVx-8" target="V7zckTCGArjimNkhpKVx-10">
          <mxGeometry relative="1" as="geometry" />
        </mxCell>
        <mxCell id="V7zckTCGArjimNkhpKVx-8" value="券数量调整" style="rounded=1;whiteSpace=wrap;html=1;" vertex="1" parent="1">
          <mxGeometry x="280" y="370" width="120" height="60" as="geometry" />
        </mxCell>
        <mxCell id="V7zckTCGArjimNkhpKVx-9" value="券数量调增" style="rounded=1;whiteSpace=wrap;html=1;" vertex="1" parent="1">
          <mxGeometry x="450" y="330" width="120" height="60" as="geometry" />
        </mxCell>
        <mxCell id="V7zckTCGArjimNkhpKVx-10" value="券数量调减" style="rounded=1;whiteSpace=wrap;html=1;" vertex="1" parent="1">
          <mxGeometry x="450" y="410" width="120" height="60" as="geometry" />
        </mxCell>
        <mxCell id="V7zckTCGArjimNkhpKVx-16" style="edgeStyle=orthogonalEdgeStyle;rounded=0;orthogonalLoop=1;jettySize=auto;html=1;" edge="1" parent="1" source="V7zckTCGArjimNkhpKVx-13" target="V7zckTCGArjimNkhpKVx-14">
          <mxGeometry relative="1" as="geometry" />
        </mxCell>
        <mxCell id="V7zckTCGArjimNkhpKVx-17" style="edgeStyle=orthogonalEdgeStyle;rounded=0;orthogonalLoop=1;jettySize=auto;html=1;" edge="1" parent="1" source="V7zckTCGArjimNkhpKVx-13" target="V7zckTCGArjimNkhpKVx-15">
          <mxGeometry relative="1" as="geometry" />
        </mxCell>
        <mxCell id="V7zckTCGArjimNkhpKVx-13" value="券状态修改" style="rounded=1;whiteSpace=wrap;html=1;" vertex="1" parent="1">
          <mxGeometry x="280" y="520" width="120" height="60" as="geometry" />
        </mxCell>
        <mxCell id="V7zckTCGArjimNkhpKVx-14" value="券失效" style="rounded=1;whiteSpace=wrap;html=1;" vertex="1" parent="1">
          <mxGeometry x="450" y="480" width="120" height="60" as="geometry" />
        </mxCell>
        <mxCell id="V7zckTCGArjimNkhpKVx-15" value="券回收" style="rounded=1;whiteSpace=wrap;html=1;" vertex="1" parent="1">
          <mxGeometry x="450" y="555" width="120" height="60" as="geometry" />
        </mxCell>
      </root>
    </mxGraphModel>
  </diagram>
</mxfile>
